<?xml version="1.0" standalone="no"?>
<!DOCTYPE svg PUBLIC "-//W3C//DTD SVG 20010904//EN"
 "http://www.w3.org/TR/2001/REC-SVG-20010904/DTD/svg10.dtd">
<svg version="1.0" xmlns="http://www.w3.org/2000/svg"
 width="225.000000pt" height="225.000000pt" viewBox="0 0 225.000000 225.000000"
 preserveAspectRatio="xMidYMid meet">

<g transform="translate(0.000000,225.000000) scale(0.100000,-0.100000)"
fill="#000000" stroke="none">
<path d="M1080 2239 c-34 -14 -54 -33 -118 -114 -31 -38 -61 -73 -66 -77 -21
-15 -57 -8 -140 27 -129 53 -205 44 -239 -28 -9 -19 -23 -77 -31 -130 -13 -85
-28 -137 -41 -137 -43 0 -216 -35 -244 -49 -71 -37 -79 -108 -26 -237 35 -83
42 -119 27 -140 -4 -5 -39 -36 -78 -67 -83 -65 -110 -96 -119 -137 -14 -64 10
-98 153 -218 63 -52 64 -63 17 -176 -72 -173 -37 -241 137 -266 40 -6 90 -15
110 -21 42 -11 50 -28 68 -158 6 -41 18 -90 27 -108 34 -72 111 -81 239 -28
83 35 119 42 140 27 5 -4 36 -39 67 -78 65 -83 96 -110 137 -119 64 -14 98 10
218 153 28 34 51 52 66 52 12 0 61 -16 109 -35 131 -53 206 -44 240 28 9 19
24 81 32 138 9 57 21 110 28 116 7 7 59 20 116 28 57 9 120 24 140 35 71 36
79 107 26 236 -47 113 -46 124 17 176 143 120 167 154 153 218 -9 41 -36 72
-119 137 -39 31 -74 62 -78 67 -15 21 -8 57 27 140 53 129 45 200 -26 237 -28
14 -201 49 -244 49 -13 0 -28 52 -41 137 -8 53 -22 111 -31 130 -34 72 -110
81 -239 28 -129 -53 -122 -56 -226 74 -23 30 -54 63 -68 73 -31 23 -87 31
-120 17z m72 -101 c8 -7 41 -46 72 -86 31 -40 69 -80 84 -90 40 -26 114 -21
202 16 107 44 126 48 138 25 6 -10 16 -57 22 -103 24 -185 50 -208 267 -235
92 -12 93 -16 48 -136 -44 -116 -51 -179 -22 -222 9 -15 52 -54 95 -88 42 -33
81 -68 86 -76 14 -25 -4 -48 -86 -112 -124 -97 -136 -132 -93 -252 63 -173 60
-160 41 -175 -10 -7 -41 -15 -69 -19 -124 -15 -170 -28 -203 -57 -39 -34 -49
-63 -64 -178 -6 -46 -16 -93 -22 -103 -12 -23 -31 -19 -138 25 -88 37 -161 42
-203 15 -15 -9 -54 -52 -88 -95 -33 -42 -68 -81 -76 -86 -25 -14 -48 4 -112
86 -104 132 -136 141 -291 79 -56 -22 -108 -41 -116 -41 -21 0 -31 28 -43 115
-27 192 -50 213 -268 240 -28 4 -60 13 -70 20 -17 13 -17 15 0 62 92 243 91
252 -51 364 -42 33 -81 68 -86 76 -14 25 4 48 86 112 43 34 86 73 95 88 29 44
22 115 -20 216 -20 48 -37 94 -37 102 0 22 27 32 115 44 192 27 213 50 240
268 4 28 13 60 20 70 13 17 15 17 62 0 241 -92 252 -90 359 45 61 78 81 98 99
98 6 0 18 -6 27 -12z"/>
<path d="M1666 1515 c-49 -13 -96 -30 -104 -39 -15 -14 -11 -35 37 -223 29
-115 59 -215 67 -223 12 -12 28 -11 128 14 120 29 136 37 136 71 0 48 -37 55
-132 29 -35 -10 -63 -13 -68 -8 -5 5 -12 28 -16 52 -6 37 -4 42 12 42 28 0 64
28 64 50 0 34 -29 52 -71 45 -37 -6 -38 -6 -48 32 -6 21 -11 43 -11 49 0 6 34
18 75 28 78 18 109 42 97 75 -14 38 -41 39 -166 6z"/>
<path d="M1295 1420 c-174 -45 -197 -61 -157 -111 19 -22 20 -22 80 -7 34 9
62 15 62 14 0 -25 93 -352 102 -357 23 -15 57 -10 68 11 8 15 0 59 -34 195
l-44 175 42 10 c74 19 86 27 86 59 0 20 -7 34 -19 41 -25 13 -9 15 -186 -30z"/>
<path d="M890 1312 c-23 -12 -43 -35 -59 -67 l-25 -48 33 -133 c34 -139 52
-174 101 -199 90 -47 210 25 210 125 0 59 -58 262 -83 288 -47 51 -118 65
-177 34z m109 -100 c18 -33 61 -220 55 -237 -21 -52 -86 -32 -103 32 -46 178
-48 192 -29 211 18 18 66 15 77 -6z"/>
<path d="M612 1233 c-6 -10 -15 -74 -22 -143 -7 -69 -16 -133 -19 -142 -4 -12
-29 16 -91 105 -61 87 -92 123 -108 125 -29 4 -52 -14 -52 -42 0 -22 241 -375
266 -389 20 -11 51 0 59 21 15 39 54 446 44 464 -13 24 -65 24 -77 1z"/>
</g>
</svg>
